<svg width="145" height="34" viewBox="0 0 145 34" fill="none" xmlns="http://www.w3.org/2000/svg">
<path d="M1.83792 33.9156L3.78693 24.3853H0V21.0526H4.45834L6.11754 12.9306H0V9.59784H6.78895L8.73797 0H12.0998L10.1508 9.59784H17.2079L19.1569 0H22.5405L20.5915 9.59784H24.4678V12.9306H19.9201L18.2391 21.0526H24.4678V24.3853H17.5653L15.6163 33.9156H12.2568L14.1841 24.3853H7.14639L5.19737 33.9156H1.83792ZM7.82021 21.0526H14.8555L16.5364 12.9306H9.477L7.82021 21.0526Z" fill="white"/>
<path d="M27.3901 17.3194C27.3901 7.46837 34.6863 0.641357 43.4967 0.641357C51.6647 0.641357 56.2993 5.40652 57.9513 10.2633L53.2707 12.1419C51.7106 7.92655 48.8196 4.90251 43.4049 4.90251C37.7607 4.90251 32.3001 9.11784 32.3001 17.2736C32.3001 25.2461 36.7971 29.828 43.2214 29.828C49.4162 29.828 52.8578 25.6126 53.1331 21.7638H42.0283V17.5485H57.8595V33.356H53.4084C53.4084 30.8818 54.3262 28.3159 55.198 26.529H53.0413C52.1694 28.9116 49.4162 33.9975 41.8906 33.9975C33.4014 33.9999 27.3901 27.5828 27.3901 17.3194Z" fill="white"/>
<path d="M65.4309 1.28296H88.7877V5.49829H70.0197V15.6701H84.7955V19.8396H70.0197V33.3562H65.4309V1.28296Z" fill="white"/>
<path d="M92.6423 28.3159C101.59 22.8177 108.978 17.5027 108.978 11.0881C108.978 6.91854 106.363 4.76505 103.151 4.76505C99.6631 4.76505 97.0016 7.28509 97.0016 11.8212L92.3669 11.1797C92.4128 5.08579 96.4968 0.641357 103.196 0.641357C109.85 0.641357 113.796 4.85669 113.796 10.584C113.796 14.0205 112.603 16.9529 110.447 19.5187C107.693 22.6802 102.783 25.8875 96.4051 29.4614L97.5522 31.2025C99.2042 30.0571 100.994 29.1407 104.389 29.1407H114.164V33.356H92.6423V28.3159Z" fill="white"/>
<path d="M119.303 17.2278C119.303 6.23126 125.131 0.641357 132.197 0.641357C139.218 0.641357 145 6.23126 145 17.2278C145 28.1785 139.815 33.9975 132.197 33.9975C124.534 33.9999 119.303 28.1785 119.303 17.2278ZM140.182 17.2278C140.182 9.53021 137.016 4.71923 132.197 4.71923C127.287 4.71923 124.121 9.53021 124.121 17.2278C124.121 25.4752 127.196 29.9196 132.197 29.9196C137.107 29.922 140.182 25.521 140.182 17.2278Z" fill="white"/>
</svg>
