<svg width="25" height="23" viewBox="0 0 25 23" fill="none" xmlns="http://www.w3.org/2000/svg">
<g clip-path="url(#clip0)">
<path d="M23.0006 5.96052C22.741 4.9674 21.9762 4.18525 21.0052 3.91982C19.2451 3.4375 12.1875 3.4375 12.1875 3.4375C12.1875 3.4375 5.12991 3.4375 3.36981 3.91982C2.39878 4.1853 1.63401 4.9674 1.37444 5.96052C0.902832 7.7606 0.902832 11.5163 0.902832 11.5163C0.902832 11.5163 0.902832 15.272 1.37444 17.0721C1.63401 18.0652 2.39878 18.8147 3.36981 19.0802C5.12991 19.5625 12.1875 19.5625 12.1875 19.5625C12.1875 19.5625 19.2451 19.5625 21.0052 19.0802C21.9762 18.8147 22.741 18.0652 23.0006 17.0721C23.4722 15.272 23.4722 11.5163 23.4722 11.5163C23.4722 11.5163 23.4722 7.7606 23.0006 5.96052ZM9.87926 14.9262V8.1064L15.778 11.5164L9.87926 14.9262Z" fill="black"/>
</g>
<defs>
<clipPath id="clip0">
<rect width="23.8036" height="21.5" fill="white" transform="translate(0.285645 0.75)"/>
</clipPath>
</defs>
</svg>
