<svg width="25" height="25" viewBox="0 0 25 25" fill="none" xmlns="http://www.w3.org/2000/svg">
<g clip-path="url(#clip0)">
<path d="M22.26 7.49524C22.2756 7.7135 22.2756 7.93181 22.2756 8.15007C22.2756 14.8074 17.2086 22.4782 7.94749 22.4782C5.09433 22.4782 2.44388 21.6518 0.214355 20.2175C0.619736 20.2643 1.00947 20.2799 1.43045 20.2799C3.78465 20.2799 5.95183 19.4847 7.68244 18.1283C5.46851 18.0815 3.61318 16.6316 2.97394 14.6359C3.28578 14.6827 3.59758 14.7139 3.92503 14.7139C4.37715 14.7139 4.82932 14.6515 5.25025 14.5424C2.94279 14.0746 1.21214 12.0478 1.21214 9.60003V9.53769C1.88253 9.91187 2.66214 10.1457 3.4884 10.1769C2.13198 9.27258 1.24333 7.7291 1.24333 5.98289C1.24333 5.04745 1.49274 4.18995 1.92932 3.44157C4.4083 6.49741 8.13456 8.49302 12.3129 8.71133C12.235 8.33714 12.1882 7.94741 12.1882 7.55762C12.1882 4.7824 14.4333 2.52173 17.2241 2.52173C18.674 2.52173 19.9837 3.12978 20.9035 4.11201C22.0417 3.89375 23.133 3.47277 24.0997 2.89591C23.7255 4.06527 22.9304 5.0475 21.8858 5.67109C22.8992 5.56201 23.8814 5.28131 24.7857 4.89158C24.0998 5.88936 23.2422 6.77801 22.26 7.49524Z" fill="black"/>
</g>
<defs>
<clipPath id="clip0">
<rect width="24.5714" height="24.5714" fill="white" transform="translate(0.214355 0.214355)"/>
</clipPath>
</defs>
</svg>
