<svg width="393" height="83" viewBox="0 0 393 83" fill="none" xmlns="http://www.w3.org/2000/svg">
<path d="M0 52.1648C0 33.6173 12.7001 21.4456 30.3647 21.4456C48.0294 21.4456 60.7295 33.6173 60.7295 52.1648C60.7295 71.0601 48.0294 83 30.3647 83C12.7001 83 0 70.0168 0 52.1648ZM43.6421 52.3967C43.6421 40.4567 38.2157 34.4288 30.3647 34.4288C22.5138 34.4288 17.0874 40.4567 17.0874 52.3967C17.0874 64.3366 22.5138 69.9009 30.3647 69.9009C38.2157 69.9009 43.6421 64.3366 43.6421 52.3967Z" fill="white"/>
<path d="M72.7368 23.1844H87.5151C87.3996 27.0098 84.9751 31.9944 81.8578 36.5154H89.016C91.6715 28.2849 97.4442 21.4456 106.681 21.4456C119.381 21.4456 126.308 29.9078 126.308 42.7752V81.1453H109.913V45.9051C109.913 38.2542 106.334 35.0084 100.677 35.0084C89.2469 35.0084 89.1315 47.528 89.1315 53.6718V81.1453H72.7368V23.1844Z" fill="white"/>
<path d="M147.552 65.9595V35.7039H135.429V23.1843H147.552V4.98462H163.946V23.1843H178.956V35.7039H163.946V62.9455C163.946 66.4232 165.447 68.0461 169.026 68.0461H181.496V81.1452H162.215C152.863 81.1452 147.552 75.0014 147.552 65.9595Z" fill="white"/>
<path d="M187.615 52.1648C187.615 33.8492 197.313 21.4455 211.399 21.4455C223.29 21.4455 228.024 29.2123 230.564 35.1243H237.491C234.605 30.6034 231.372 25.155 231.372 11.3603V0H247.767V81.1453H232.873C232.873 77.088 235.529 72.683 237.838 69.3212H230.91C228.024 75.1173 223.637 83 211.399 83C197.313 83 187.615 70.4804 187.615 52.1648ZM232.055 52.1648C232.055 39.8771 226.514 33.8492 218.316 33.8492C210.696 33.8492 204.808 38.602 204.808 52.1648C204.808 65.7277 210.696 70.4804 218.316 70.4804C226.398 70.4804 232.055 64.4525 232.055 52.1648Z" fill="white"/>
<path d="M259.89 52.0489C259.89 33.8492 272.359 21.4456 289.1 21.4456C308.496 21.4456 318.656 36.7472 317.04 56.1062H276.284C276.746 66.3073 282.173 70.4805 289.215 70.4805C296.605 70.4805 300.184 65.8436 302.608 60.3953L317.271 66.0755C314.038 73.4944 306.765 83 289.215 83C271.435 83 259.89 71.0601 259.89 52.0489ZM300.867 44.514C300.174 37.3268 296.018 33.2696 289.09 33.2696C282.509 33.2696 278.007 37.2109 276.852 44.514H300.867Z" fill="white"/>
<path d="M354.322 57.1494L345.894 65.264V81.1452H329.5V0H345.894V25.6187C345.894 37.2109 342.777 41.5 337.581 45.7891L341.969 50.5419L369.101 23.1844H389.19L365.637 46.1369L393 81.1452H372.334L354.322 57.1494Z" fill="white"/>
</svg>
