<svg width="293" height="34" viewBox="0 0 293 34" fill="none" xmlns="http://www.w3.org/2000/svg">
<g clip-path="url(#clip0)">
<path d="M45.1031 8L49.0031 20L53.0031 8H57.0031L50.8031 25.8H47.5031L41.2031 8H45.1031Z" fill="#010202"/>
<path d="M64.7039 25.9H61.0039V8H64.6039V25.9H64.7039Z" fill="#010202"/>
<path d="M80.2039 25.9L77.0039 18.9H74.1039V25.9H70.5039V8H76.9039C81.0039 8 83.6039 9.8 83.6039 13.5C83.6039 15.9 82.5039 17.5 80.5039 18.3L84.2039 25.9H80.2039ZM76.5039 15.8C78.6039 15.8 79.9039 15.3 79.9039 13.5C79.9039 11.7 78.7039 11.1 76.5039 11.1H74.1039V15.8H76.5039Z" fill="#010202"/>
<path d="M100.103 8V11.1H95.2031V25.9H91.6031V11.1H86.7031V8H100.103Z" fill="#010202"/>
<path d="M117.804 8V18.6C117.804 23.9 114.904 26.1 110.904 26.1C106.904 26.1 104.004 23.9 104.004 18.7V8H107.604V18.6C107.604 21.7 108.604 23 110.804 23C113.004 23 114.004 21.7 114.004 18.6V8H117.804Z" fill="#010202"/>
<path d="M121.504 25.9L127.704 8H131.204L137.404 25.8H133.504L132.404 22.4H126.404L125.304 25.8H121.504V25.9ZM127.404 19.4H131.404L129.404 13.1L127.404 19.4Z" fill="#010202"/>
<path d="M144.702 22.8H152.202V25.9H141.102V8H144.702V22.8Z" fill="#010202"/>
<path d="M162.805 25.9L169.005 8H172.505L178.705 25.8H174.805L173.705 22.4H167.705L166.605 25.8H162.805V25.9ZM168.705 19.4H172.705L170.705 13.1L168.705 19.4Z" fill="#010202"/>
<path d="M191.205 13.5C190.905 11.8 189.905 10.8 188.105 10.8C186.005 10.8 184.905 12.2 184.905 15.6V18.1C184.905 21.4 186.005 22.9 188.105 22.9C189.905 22.9 190.805 22 191.205 20.2H194.605C194.005 24.2 191.805 26 188.105 26C184.105 26 181.305 23.6 181.305 18.1V15.6C181.305 10.1 184.105 7.69995 188.105 7.69995C191.605 7.69995 194.005 9.59995 194.605 13.5H191.205Z" fill="#010202"/>
<path d="M210.802 8V11.1H205.902V25.9H202.302V11.1H197.402V8H210.802Z" fill="#010202"/>
<path d="M218.702 25.9H215.102V8H218.702V25.9Z" fill="#010202"/>
<path d="M226.805 8L230.705 20L234.605 8H238.605L232.405 25.8H229.105L222.805 8H226.805Z" fill="#010202"/>
<path d="M246.303 25.9H242.703V8H246.303V25.9Z" fill="#010202"/>
<path d="M264.002 8V11.1H259.102V25.9H255.502V11.1H250.602V8H264.002Z" fill="#010202"/>
<path d="M270.604 8L273.804 14.6L277.004 8H281.204L275.604 18.6V25.9H272.004V18.6L266.504 8H270.604Z" fill="#010202"/>
<path d="M290.702 0H74.8016H34.1016H0.101562V33.7H34.1016H74.8016H290.602H292.602V31.7V2V0H290.702ZM21.5016 20.2C21.5016 21.1 20.8016 21.9 19.8016 21.9H9.80156C8.90156 21.9 8.10156 21.2 8.10156 20.2V13.5C8.10156 12.6 8.80156 11.8 9.80156 11.8H19.8016C20.7016 11.8 21.5016 12.5 21.5016 13.5V20.2ZM28.1016 21.8L23.1016 18.3V15.3L28.1016 11.8V21.8ZM290.702 31.7H36.1016V2H290.602V31.7H290.702Z" fill="#010202"/>
</g>
<defs>
<clipPath id="clip0">
<rect width="292.7" height="33.7" fill="white"/>
</clipPath>
</defs>
</svg>
