<svg width="65" height="18" viewBox="0 0 65 18" fill="none" xmlns="http://www.w3.org/2000/svg">
<path d="M13.041 15.16C11.7377 16.4633 10.2197 17.115 8.487 17.115C7.41367 17.115 6.40167 16.9003 5.451 16.471C4.51567 16.0417 3.69533 15.4513 2.99 14.7C2.3 13.9487 1.748 13.067 1.334 12.055C0.935333 11.0277 0.736 9.92367 0.736 8.743C0.736 7.62367 0.935333 6.57333 1.334 5.592C1.748 4.59533 2.30767 3.729 3.013 2.993C3.73367 2.24167 4.577 1.65133 5.543 1.222C6.509 0.777332 7.55933 0.554999 8.694 0.554999C10.2273 0.554999 11.5383 0.876999 12.627 1.521C13.731 2.165 14.559 3.03133 15.111 4.12L12.742 5.868C12.328 5.05533 11.7453 4.43433 10.994 4.005C10.258 3.57567 9.453 3.361 8.579 3.361C7.889 3.361 7.25267 3.50667 6.67 3.798C6.10267 4.08933 5.612 4.488 5.198 4.994C4.79933 5.5 4.485 6.08267 4.255 6.742C4.04033 7.40133 3.933 8.099 3.933 8.835C3.933 9.60167 4.05567 10.3223 4.301 10.997C4.54633 11.6563 4.88367 12.2313 5.313 12.722C5.74233 13.2127 6.24833 13.6037 6.831 13.895C7.429 14.171 8.073 14.309 8.763 14.309C10.3423 14.309 11.7683 13.5653 13.041 12.078V10.928H9.752V8.605H15.663V17H13.041V15.16ZM25.245 7.616C24.3097 7.63133 23.474 7.81533 22.738 8.168C22.002 8.50533 21.473 9.019 21.151 9.709V17H18.069V4.948H20.898V7.524C21.1127 7.11 21.3657 6.742 21.657 6.42C21.9483 6.08267 22.2627 5.79133 22.6 5.546C22.9373 5.30067 23.2747 5.11667 23.612 4.994C23.9647 4.856 24.302 4.787 24.624 4.787C24.7927 4.787 24.9153 4.787 24.992 4.787C25.084 4.787 25.1683 4.79467 25.245 4.81V7.616ZM30.0953 17.23C29.5127 17.23 28.9683 17.138 28.4623 16.954C27.9563 16.7547 27.5193 16.4863 27.1513 16.149C26.7833 15.7963 26.492 15.39 26.2773 14.93C26.078 14.47 25.9783 13.964 25.9783 13.412C25.9783 12.8447 26.101 12.3233 26.3463 11.848C26.607 11.3573 26.9597 10.9433 27.4043 10.606C27.8643 10.2687 28.4087 10.008 29.0373 9.824C29.666 9.62467 30.356 9.525 31.1073 9.525C31.644 9.525 32.1653 9.571 32.6713 9.663C33.1927 9.755 33.6527 9.88533 34.0513 10.054V9.364C34.0513 8.56667 33.8213 7.95333 33.3613 7.524C32.9167 7.09467 32.2497 6.88 31.3603 6.88C30.7163 6.88 30.0877 6.995 29.4743 7.225C28.861 7.455 28.2323 7.79233 27.5883 8.237L26.6453 6.282C28.194 5.25467 29.8653 4.741 31.6593 4.741C33.392 4.741 34.7337 5.17033 35.6843 6.029C36.6503 6.87233 37.1333 8.099 37.1333 9.709V13.458C37.1333 13.78 37.187 14.01 37.2943 14.148C37.417 14.286 37.6087 14.3627 37.8693 14.378V17C37.348 17.1073 36.8957 17.161 36.5123 17.161C35.9297 17.161 35.4773 17.0307 35.1553 16.77C34.8487 16.5093 34.657 16.1643 34.5803 15.735L34.5113 15.068C33.9747 15.7733 33.323 16.31 32.5563 16.678C31.7897 17.046 30.9693 17.23 30.0953 17.23ZM30.9693 14.976C31.4907 14.976 31.9813 14.884 32.4413 14.7C32.9167 14.516 33.2847 14.2707 33.5453 13.964C33.8827 13.7033 34.0513 13.412 34.0513 13.09V11.71C33.6833 11.572 33.2847 11.4647 32.8553 11.388C32.426 11.296 32.012 11.25 31.6133 11.25C30.816 11.25 30.1643 11.434 29.6583 11.802C29.1523 12.1547 28.8993 12.607 28.8993 13.159C28.8993 13.6803 29.0987 14.1173 29.4973 14.47C29.896 14.8073 30.3867 14.976 30.9693 14.976ZM47.1455 16.379C46.7315 16.563 46.2255 16.747 45.6275 16.931C45.0295 17.115 44.4008 17.207 43.7415 17.207C43.3122 17.207 42.9058 17.1533 42.5225 17.046C42.1545 16.9387 41.8248 16.77 41.5335 16.54C41.2575 16.2947 41.0352 15.988 40.8665 15.62C40.6978 15.2367 40.6135 14.7767 40.6135 14.24V7.317H39.0265V4.948H40.6135V1.038H43.6955V4.948H46.2255V7.317H43.6955V13.205C43.6955 13.6343 43.8028 13.941 44.0175 14.125C44.2475 14.2937 44.5235 14.378 44.8455 14.378C45.1675 14.378 45.4818 14.3243 45.7885 14.217C46.0952 14.1097 46.3405 14.0177 46.5245 13.941L47.1455 16.379ZM48.7507 17V4.948H51.8327V17H48.7507ZM48.7507 3.269V0.21H51.8327V3.269H48.7507ZM59.167 17.23C58.155 17.23 57.166 17.069 56.2 16.747C55.234 16.425 54.406 15.965 53.716 15.367L54.866 13.435C55.602 13.9563 56.315 14.355 57.005 14.631C57.7103 14.8917 58.408 15.022 59.098 15.022C59.7113 15.022 60.1943 14.907 60.547 14.677C60.8996 14.447 61.076 14.1173 61.076 13.688C61.076 13.2587 60.869 12.9443 60.455 12.745C60.041 12.5457 59.3663 12.3157 58.431 12.055C57.649 11.8403 56.982 11.6333 56.43 11.434C55.878 11.2347 55.4333 11.0123 55.096 10.767C54.7586 10.5063 54.5133 10.215 54.36 9.893C54.2066 9.55567 54.13 9.157 54.13 8.697C54.13 8.08367 54.245 7.53167 54.475 7.041C54.7203 6.55033 55.0576 6.13633 55.487 5.799C55.9163 5.44633 56.4146 5.178 56.982 4.994C57.5646 4.81 58.1933 4.718 58.868 4.718C59.7726 4.718 60.616 4.84833 61.398 5.109C62.1953 5.36967 62.9236 5.79133 63.583 6.374L62.341 8.237C61.7276 7.777 61.1296 7.43967 60.547 7.225C59.9796 7.01033 59.4123 6.903 58.845 6.903C58.3236 6.903 57.8866 7.01033 57.534 7.225C57.1813 7.43967 57.005 7.78467 57.005 8.26C57.005 8.47467 57.0433 8.651 57.12 8.789C57.212 8.927 57.35 9.04967 57.534 9.157C57.718 9.26433 57.9556 9.37167 58.247 9.479C58.5536 9.571 58.9293 9.67067 59.374 9.778C60.202 9.99267 60.9073 10.2073 61.49 10.422C62.088 10.6367 62.571 10.882 62.939 11.158C63.3223 11.434 63.5983 11.756 63.767 12.124C63.951 12.4767 64.043 12.906 64.043 13.412C64.043 14.5927 63.606 15.528 62.732 16.218C61.858 16.8927 60.6696 17.23 59.167 17.23Z" fill="black"/>
</svg>
