<svg width="155" height="20" viewBox="0 0 155 20" fill="none" xmlns="http://www.w3.org/2000/svg">
<g clip-path="url(#clip0)">
<path d="M71.0434 20H155.062V0H71.0434H69.7959H0.0615234V20H69.7959H71.0434ZM71.0434 1.18694H153.814V18.8131H71.0434V1.18694ZM13.5344 10.8012C13.5344 14.0653 11.975 15.4896 9.41766 15.4896C6.92269 15.4896 5.17621 14.0653 5.17621 10.8012V9.4362C5.17621 5.99407 6.92269 4.62908 9.41766 4.62908C11.7879 4.62908 13.1601 5.87537 13.472 8.07122H11.2889C11.1018 7.12166 10.478 6.46884 9.35529 6.46884C8.04543 6.46884 7.35931 7.2997 7.35931 9.31751V10.8012C7.35931 12.819 8.04543 13.6499 9.35529 13.6499C10.6028 13.6499 11.1641 12.8783 11.2889 11.632H9.41766V9.79228H13.472V10.8012H13.5344ZM23.639 6.58754H18.9609V8.96142H23.14V10.8012H18.9609V13.5905H23.639V15.4303H16.6531V4.74777H23.5766V6.58754H23.639ZM34.804 15.3709H32.9328L28.5666 8.84273V15.3709H26.4458V4.74777H28.3171L32.6833 11.3947V4.74777H34.804V15.3709ZM45.7195 6.58754H42.6631V15.3709H40.4177V6.58754H37.3613V4.74777H45.7195V6.58754ZM52.0193 15.4896C50.0857 15.4896 48.7134 14.9555 47.7155 13.7685L49.4619 12.6409C50.0857 13.3531 50.7094 13.7092 51.8945 13.7092C53.2044 13.7092 53.641 13.1751 53.641 12.5223C53.641 11.8101 53.142 11.3947 51.3955 10.9199C49.2124 10.3858 48.0897 9.37685 48.0897 7.59644C48.0897 5.93472 49.2748 4.62908 51.8945 4.62908C53.641 4.62908 55.0132 5.22255 55.8241 6.35015L54.14 7.47775C53.641 6.76558 53.0796 6.4095 51.9569 6.4095C50.9589 6.4095 50.3975 6.88427 50.3975 7.59644C50.3975 8.4273 51.0837 8.78338 52.5806 9.13947C54.8885 9.67359 55.9488 10.5045 55.9488 12.4036C55.8241 14.1246 54.5766 15.4896 52.0193 15.4896ZM65.7416 6.58754H61.0635V8.96142H65.2426V10.8012H61.0635V13.5905H65.7416V15.4303H58.7557V4.74777H65.6792V6.58754H65.7416Z" fill="#010202"/>
<path d="M80.2138 9.13941C78.7169 8.78333 78.0307 8.42725 78.0307 7.59639C78.0307 6.88422 78.5921 6.40944 79.5901 6.40944C80.7128 6.40944 81.2742 6.76553 81.7732 7.47769L83.4573 6.3501C82.6464 5.16315 81.3366 4.62903 79.5277 4.62903C76.908 4.62903 75.7229 5.93467 75.7229 7.59639C75.7229 9.31746 76.8456 10.3264 79.0287 10.9198C80.8376 11.3946 81.2742 11.7507 81.2742 12.5222C81.2742 13.175 80.8376 13.7091 79.5277 13.7091C78.405 13.7091 77.7189 13.3531 77.0951 12.6409L75.3486 13.7685C76.3466 15.0148 77.7189 15.4896 79.6525 15.4896C82.2722 15.4896 83.5197 14.1246 83.5197 12.4035C83.582 10.5044 82.5841 9.67354 80.2138 9.13941Z" fill="#010202"/>
<path d="M86.5762 15.3709H93.4997V13.5312H88.8216V10.7419H93.0007V8.96145H88.8216V6.58757H93.4997V4.7478H86.5762V15.3709Z" fill="#010202"/>
<path d="M98.6136 4.7478H96.3682V15.3709H103.292V13.5312H98.6136V4.7478Z" fill="#010202"/>
<path d="M105.725 15.3709H112.711V13.5312H108.032V10.7419H112.212V8.96145H108.032V6.58757H112.711V4.7478H105.725V15.3709Z" fill="#010202"/>
<path d="M119.448 6.40947C120.57 6.40947 121.132 7.00294 121.381 8.01184H123.564C123.19 5.6973 121.693 4.5697 119.51 4.5697C117.015 4.5697 115.269 5.99404 115.269 9.25813V10.7418C115.269 14.0059 117.015 15.4302 119.51 15.4302C121.818 15.4302 123.19 14.362 123.564 11.9881H121.444C121.194 13.0564 120.633 13.5905 119.51 13.5905C118.2 13.5905 117.514 12.7003 117.514 10.7418V9.25813C117.452 7.24033 118.138 6.40947 119.448 6.40947Z" fill="#010202"/>
<path d="M125.186 6.58757H128.242V15.3709H130.487V6.58757H133.544V4.7478H125.186V6.58757Z" fill="#010202"/>
<path d="M138.47 4.7478H136.225V15.3116H138.47V4.7478Z" fill="#010202"/>
<path d="M142.15 15.3709H149.074V13.5312H144.396V10.7419H148.575V8.96145H144.396V6.58757H149.074V4.7478H142.15V15.3709Z" fill="#010202"/>
</g>
<defs>
<clipPath id="clip0">
<rect width="155" height="20" fill="white"/>
</clipPath>
</defs>
</svg>
