<svg width="151" height="43" viewBox="0 0 151 43" fill="none" xmlns="http://www.w3.org/2000/svg">
<rect width="43" height="43" fill="black"/>
<rect x="54" width="43" height="43" fill="#E9E9E9"/>
<rect x="108" width="43" height="43" fill="#E9E9E9"/>
<path d="M80.2792 21.8125L80.8496 18.012H77.2831V15.5457C77.2831 14.506 77.7813 13.4925 79.3786 13.4925H81V10.2568C81 10.2568 79.5286 10 78.1218 10C75.1847 10 73.2649 11.8203 73.2649 15.1155V18.012H70V21.8125H73.2649V31H77.2831V21.8125H80.2792Z" fill="black"/>
<path d="M29.9442 16.9875C29.9569 17.1625 29.9569 17.3375 29.9569 17.5125C29.9569 22.85 25.8326 29 18.2944 29C15.9721 29 13.8147 28.3375 12 27.1875C12.33 27.225 12.6472 27.2375 12.9898 27.2375C14.9061 27.2375 16.6701 26.6 18.0787 25.5125C16.2767 25.475 14.7665 24.3125 14.2462 22.7125C14.5 22.75 14.7538 22.775 15.0203 22.775C15.3883 22.775 15.7564 22.725 16.099 22.6375C14.2208 22.2625 12.8122 20.6375 12.8122 18.675V18.625C13.3578 18.925 13.9924 19.1125 14.6649 19.1375C13.5609 18.4125 12.8375 17.175 12.8375 15.775C12.8375 15.025 13.0406 14.3375 13.3959 13.7375C15.4137 16.1875 18.4467 17.7875 21.8477 17.9625C21.7843 17.6625 21.7462 17.35 21.7462 17.0375C21.7462 14.8125 23.5736 13 25.8452 13C27.0254 13 28.0914 13.4875 28.8401 14.275C29.7665 14.1 30.6548 13.7625 31.4416 13.3C31.137 14.2375 30.4898 15.025 29.6396 15.525C30.4645 15.4375 31.264 15.2125 32 14.9C31.4417 15.7 30.7437 16.4125 29.9442 16.9875Z" fill="white"/>
<g clip-path="url(#clip0)">
<path d="M130.367 10.2666C126.159 10.2666 122 13.0721 122 17.6125C122 20.5 123.624 22.1406 124.609 22.1406C125.015 22.1406 125.248 21.0086 125.248 20.6887C125.248 20.3072 124.276 19.4951 124.276 17.9078C124.276 14.6102 126.787 12.2723 130.035 12.2723C132.828 12.2723 134.895 13.8596 134.895 16.7758C134.895 18.9537 134.022 23.0389 131.192 23.0389C130.17 23.0389 129.297 22.3006 129.297 21.2424C129.297 19.692 130.379 18.1908 130.379 16.5912C130.379 13.876 126.528 14.3682 126.528 17.6494C126.528 18.3385 126.614 19.1014 126.922 19.7289C126.356 22.1652 125.199 25.7951 125.199 28.3053C125.199 29.0805 125.31 29.8434 125.384 30.6186C125.523 30.7744 125.454 30.758 125.667 30.6801C127.734 27.85 127.66 27.2963 128.595 23.5926C129.1 24.5523 130.404 25.0691 131.438 25.0691C135.794 25.0691 137.75 20.824 137.75 16.9973C137.75 12.9244 134.231 10.2666 130.367 10.2666Z" fill="black"/>
</g>
<defs>
<clipPath id="clip0">
<rect width="15.75" height="21" fill="white" transform="translate(122 10)"/>
</clipPath>
</defs>
</svg>
